{
  "accessors": [
    {
      "bufferView": 2,
      "componentType": 5126,
      "count": 8186,
      "max": [
        0.6000000238418579,
        0.24868524074554443,
        0.7739999294281006
      ],
      "min": [
        -0.6000000238418579,
        -1.7513147592544556,
        0.0
      ],
      "type": "VEC3"
    },
    {
      "bufferView": 2,
      "byteOffset": 98232,
      "componentType": 5126,
      "count": 8186,
      "max": [
        1.0,
        1.0,
        1.0
      ],
      "min": [
        -1.0,
        -1.0,
        -1.0
      ],
      "type": "VEC3"
    },
    {
      "bufferView": 1,
      "componentType": 5126,
      "count": 8186,
      "max": [
        0.9995238780975342,
        0.9780306220054626
      ],
      "min": [
        0.000476162473205477,
        0.000476170884212479
      ],
      "type": "VEC2"
    },
    {
      "bufferView": 0,
      "componentType": 5125,
      "count": 21669,
      "type": "SCALAR"
    },
    {
      "bufferView": 2,
      "byteOffset": 196464,
      "componentType": 5126,
      "count": 1014,
      "max": [
        0.6000000238418579,
        0.24868524074554443,
        0.8200001120567322
      ],
      "min": [
        -0.6000000238418579,
        -1.7513147592544556,
        0.7699998617172241
      ],
      "type": "VEC3"
    },
    {
      "bufferView": 2,
      "byteOffset": 208632,
      "componentType": 5126,
      "count": 1014,
      "max": [
        1.0,
        1.0,
        1.0
      ],
      "min": [
        -1.0,
        -1.0,
        -1.0
      ],
      "type": "VEC3"
    },
    {
      "bufferView": 3,
      "componentType": 5126,
      "count": 1014,
      "max": [
        1.0,
        1.0,
        1.0,
        1.0
      ],
      "min": [
        -1.0,
        -1.0,
        -1.0,
        -1.0
      ],
      "type": "VEC4"
    },
    {
      "bufferView": 1,
      "byteOffset": 65488,
      "componentType": 5126,
      "count": 1014,
      "max": [
        0.8791875839233398,
        0.7600986361503601
      ],
      "min": [
        0.00047618531971238554,
        0.0004761569725815207
      ],
      "type": "VEC2"
    },
    {
      "bufferView": 0,
      "byteOffset": 86676,
      "componentType": 5125,
      "count": 2811,
      "type": "SCALAR"
    }
  ],
  "asset": {
    "extras": {
      "author": "Superenforcer_xp (https://sketchfab.com/Superenforcer_xp)",
      "license": "CC-BY-4.0 (http://creativecommons.org/licenses/by/4.0/)",
      "source": "https://sketchfab.com/3d-models/l-shaped-desk-table-with-wood-tabletop-087212b79e1142cfbd3babe862db7328",
      "title": "L-shaped desk table with wood tabletop"
    },
    "generator": "Sketchfab-15.53.0",
    "version": "2.0"
  },
  "bufferViews": [
    {
      "buffer": 0,
      "byteLength": 97920,
      "name": "floatBufferViews",
      "target": 34963
    },
    {
      "buffer": 0,
      "byteLength": 73600,
      "byteOffset": 97920,
      "byteStride": 8,
      "name": "floatBufferViews",
      "target": 34962
    },
    {
      "buffer": 0,
      "byteLength": 220800,
      "byteOffset": 171520,
      "byteStride": 12,
      "name": "floatBufferViews",
      "target": 34962
    },
    {
      "buffer": 0,
      "byteLength": 16224,
      "byteOffset": 392320,
      "byteStride": 16,
      "name": "floatBufferViews",
      "target": 34962
    }
  ],
  "buffers": [
    {
      "byteLength": 408544,
      "uri": "scene.bin"
    }
  ],
  "images": [
    {
      "uri": "textures/Rough_Dark-Blue_Texture_baseColor.jpeg"
    },
    {
      "uri": "textures/Rough_Dark-Blue_Texture_metallicRoughness.png"
    },
    {
      "uri": "textures/Rough_Dark-Blue_Texture_normal.png"
    }
  ],
  "materials": [
    {
      "doubleSided": true,
      "name": "Rough_Light_Blue_Texture",
      "pbrMetallicRoughness": {
        "baseColorFactor": [
          0.0,
          0.0,
          0.0,
          1.0
        ],
        "metallicFactor": 0.0,
        "roughnessFactor": 0.851812119808365
      }
    },
    {
      "doubleSided": true,
      "name": "Rough_Dark-Blue_Texture",
      "normalTexture": {
        "index": 2
      },
      "pbrMetallicRoughness": {
        "baseColorTexture": {
          "index": 0
        },
        "metallicFactor": 0.0,
        "metallicRoughnessTexture": {
          "index": 1
        }
      }
    }
  ],
  "meshes": [
    {
      "name": "L-Shaped Desk_Rough Light Blue Texture_0",
      "primitives": [
        {
          "attributes": {
            "NORMAL": 1,
            "POSITION": 0,
            "TEXCOORD_0": 2
          },
          "indices": 3,
          "material": 0,
          "mode": 4
        }
      ]
    },
    {
      "name": "L-Shaped Desk_Rough Dark-Blue Texture_0",
      "primitives": [
        {
          "attributes": {
            "NORMAL": 5,
            "POSITION": 4,
            "TANGENT": 6,
            "TEXCOORD_0": 7
          },
          "indices": 8,
          "material": 1,
          "mode": 4
        }
      ]
    }
  ],
  "nodes": [
    {
      "children": [
        1
      ],
      "matrix": [
        1.0,
        0.0,
        0.0,
        0.0,
        0.0,
        2.220446049250313e-16,
        -1.0,
        0.0,
        0.0,
        1.0,
        2.220446049250313e-16,
        0.0,
        0.0,
        0.0,
        0.0,
        1.0
      ],
      "name": "Sketchfab_model"
    },
    {
      "children": [
        2
      ],
      "matrix": [
        0.009999999776482582,
        0.0,
        0.0,
        0.0,
        0.0,
        0.0,
        0.009999999776482582,
        0.0,
        0.0,
        -0.009999999776482582,
        0.0,
        0.0,
        0.0,
        0.0,
        0.0,
        1.0
      ],
      "name": "9f68154daf694208b3ac1be7266ed604.fbx"
    },
    {
      "children": [
        3
      ],
      "name": "RootNode"
    },
    {
      "children": [
        4,
        5
      ],
      "matrix": [
        100.0,
        0.0,
        0.0,
        0.0,
        0.0,
        -1.629206793918314e-05,
        -99.99999999999868,
        0.0,
        0.0,
        99.99999999999868,
        -1.629206793918314e-05,
        0.0,
        30.000001907348633,
        0.0,
        -75.13147735595703,
        1.0
      ],
      "name": "L-Shaped Desk"
    },
    {
      "mesh": 0,
      "name": "L-Shaped Desk_Rough Light Blue Texture_0"
    },
    {
      "mesh": 1,
      "name": "L-Shaped Desk_Rough Dark-Blue Texture_0"
    }
  ],
  "samplers": [
    {
      "magFilter": 9729,
      "minFilter": 9987,
      "wrapS": 10497,
      "wrapT": 10497
    }
  ],
  "scene": 0,
  "scenes": [
    {
      "name": "Sketchfab_Scene",
      "nodes": [
        0
      ]
    }
  ],
  "textures": [
    {
      "sampler": 0,
      "source": 0
    },
    {
      "sampler": 0,
      "source": 1
    },
    {
      "sampler": 0,
      "source": 2
    }
  ]
}
